<?xml version="1.0" encoding="UTF-8" standalone="no"?>
<!-- Created with Inkscape (http://www.inkscape.org/) -->

<svg
   xmlns:dc="http://purl.org/dc/elements/1.1/"
   xmlns:cc="http://creativecommons.org/ns#"
   xmlns:rdf="http://www.w3.org/1999/02/22-rdf-syntax-ns#"
   xmlns:svg="http://www.w3.org/2000/svg"
   xmlns="http://www.w3.org/2000/svg"
   xmlns:sodipodi="http://sodipodi.sourceforge.net/DTD/sodipodi-0.dtd"
   xmlns:inkscape="http://www.inkscape.org/namespaces/inkscape"
   width="1024"
   height="768"
   id="svg2"
   version="1.1"
   inkscape:version="0.48.4 r9939"
   sodipodi:docname="test.svg">
  <defs
     id="defs4">
    <filter
       inkscape:collect="always"
       id="filter3773"
       x="-0.049345865"
       width="1.0986917"
       y="-0.34966531"
       height="1.6993306">
      <feGaussianBlur
         inkscape:collect="always"
         stdDeviation="5.4919764"
         id="feGaussianBlur3775" />
    </filter>
  </defs>
  <sodipodi:namedview
     id="base"
     pagecolor="#ffffff"
     bordercolor="#666666"
     borderopacity="1.0"
     inkscape:pageopacity="0.0"
     inkscape:pageshadow="2"
     inkscape:zoom="0.15104166"
     inkscape:cx="1716.3574"
     inkscape:cy="-98.447746"
     inkscape:document-units="px"
     inkscape:current-layer="layer1"
     showgrid="true"
     width="1024px"
     inkscape:window-width="1918"
     inkscape:window-height="1078"
     inkscape:window-x="0"
     inkscape:window-y="0"
     inkscape:window-maximized="0">
    <inkscape:grid
       type="xygrid"
       id="grid4400"
       empspacing="1"
       visible="true"
       enabled="true"
       snapvisiblegridlinesonly="true"
       spacingx="1024px"
       spacingy="768px"
       dotted="false" />
  </sodipodi:namedview>
  <metadata
     id="metadata7">
    <rdf:RDF>
      <cc:Work
         rdf:about="">
        <dc:format>image/svg+xml</dc:format>
        <dc:type
           rdf:resource="http://purl.org/dc/dcmitype/StillImage" />
        <dc:title></dc:title>
      </cc:Work>
    </rdf:RDF>
  </metadata>
  <g
     inkscape:label="Layer 1"
     inkscape:groupmode="layer"
     id="layer1"
     transform="translate(0,-284.36218)">
    <path
       style="color:#000000;fill:#ff0000;fill-opacity:1;fill-rule:nonzero;stroke:none;stroke-width:0.147;marker:none;visibility:visible;display:inline;overflow:visible;enable-background:accumulate"
       d="m 0,284.36218 1024,0 0,768.00002 -1024,0 z"
       id="rect2985" />
    <g
       transform="matrix(2.6140358,0,0,2.6140358,-128.5613,69.156939)"
       style="font-size:40px;font-style:normal;font-variant:normal;font-weight:normal;font-stretch:normal;line-height:125%;letter-spacing:0px;word-spacing:0px;fill:#ffffff;fill-opacity:1;stroke:#ffffff;stroke-opacity:1;filter:url(#filter3773);font-family:Trebuchet MS;-inkscape-font-specification:Trebuchet MS"
       id="flowRoot2997">
      <path
         d="m 127.89844,239.87064 0,-13.82813 -12.5,0 0,13.82813 -3.90625,0 0,-28.61328 3.90625,0 0,11.46484 12.5,0 0,-11.46484 3.90625,0 0,28.61328 -3.90625,0"
         style=""
         id="path3798" />
      <path
         d="m 154.98828,229.77298 -15.07812,0 c -1e-5,2.44793 0.67056,4.32943 2.01171,5.64453 1.18489,1.14584 2.70833,1.71875 4.57032,1.71875 2.12238,0 3.89321,-0.61848 5.3125,-1.85547 l 1.5625,2.67578 c -0.57294,0.57292 -1.45184,1.06771 -2.63672,1.48438 -1.48439,0.54687 -3.13803,0.82031 -4.96094,0.82031 -2.63022,0 -4.86329,-0.89192 -6.69922,-2.67578 -2.04427,-1.96614 -3.06641,-4.60937 -3.0664,-7.92969 -1e-5,-3.4505 1.04817,-6.21743 3.14453,-8.30078 1.87499,-1.86196 4.09504,-2.79295 6.66015,-2.79297 2.98176,2e-5 5.319,0.83987 7.01172,2.51953 1.64061,1.61461 2.46092,3.75653 2.46094,6.42579 -2e-5,0.82032 -0.0977,1.57553 -0.29297,2.26562 m -9.00391,-8.08594 c -1.65365,2e-5 -3.04037,0.53388 -4.16015,1.60157 -1.06772,1.01564 -1.67318,2.27866 -1.81641,3.78906 l 11.58203,0 c -1e-5,-1.49738 -0.46876,-2.74738 -1.40625,-3.75 -1.02866,-1.09373 -2.42839,-1.64061 -4.19922,-1.64063"
         style=""
         id="path3800" />
      <path
         d="m 159.46094,233.95267 0,-23.57422 3.71093,0 0,22.94922 c 0,1.1198 0.31901,2.00521 0.95704,2.65625 0.65103,0.63802 1.49738,0.95703 2.53906,0.95703 l 0,3.32031 c -4.80469,0 -7.20704,-2.10286 -7.20703,-6.30859"
         style=""
         id="path3802" />
      <path
         d="m 171.25781,233.95267 0,-23.57422 3.71094,0 0,22.94922 c -1e-5,1.1198 0.319,2.00521 0.95703,2.65625 0.65103,0.63802 1.49739,0.95703 2.53906,0.95703 l 0,3.32031 c -4.80469,0 -7.20703,-2.10286 -7.20703,-6.30859"
         style=""
         id="path3804" />
      <path
         d="m 181.39453,229.36282 c 0,-3.22915 0.86588,-5.83331 2.59766,-7.8125 1.74478,-1.99216 4.03645,-2.98826 6.875,-2.98828 2.99478,2e-5 5.31899,0.95705 6.97265,2.8711 1.65363,1.90106 2.48045,4.54428 2.48047,7.92968 -2e-5,3.37241 -0.84637,6.03517 -2.53906,7.98829 -1.69272,1.9401 -3.99741,2.91015 -6.91406,2.91015 -2.98178,0 -5.306,-0.98307 -6.97266,-2.94922 -1.66667,-1.96614 -2.5,-4.61587 -2.5,-7.94922 m 3.90625,0 c 0,5.24741 1.85546,7.8711 5.56641,7.8711 1.73176,0 3.08592,-0.70312 4.0625,-2.10938 0.98957,-1.40624 1.48436,-3.32681 1.48437,-5.76172 -1e-5,-5.18227 -1.84897,-7.77341 -5.54687,-7.77343 -1.69272,2e-5 -3.04689,0.69012 -4.0625,2.07031 -1.00261,1.38022 -1.50391,3.28126 -1.50391,5.70312"
         style=""
         id="path3806" />
      <path
         d="m 220.10547,211.04251 c 0.63801,3e-5 1.17838,0.2279 1.62109,0.6836 0.45572,0.44273 0.68359,0.97659 0.6836,1.60156 -1e-5,0.63805 -0.22788,1.18492 -0.6836,1.64062 -0.44271,0.44274 -0.98308,0.66409 -1.62109,0.66407 -0.62501,2e-5 -1.16537,-0.22133 -1.6211,-0.66407 -0.44271,-0.4557 -0.66406,-1.00257 -0.66406,-1.64062 0,-0.638 0.22135,-1.17836 0.66406,-1.6211 0.44271,-0.44268 0.98307,-0.66403 1.6211,-0.66406 m -2.03125,28.82813 0,-17.79297 -2.8711,0 0,-3.125 6.58204,0 0,20.91797 -3.71094,0"
         style=""
         id="path3808" />
      <path
         d="m 240.55469,239.87064 0,-12.16797 c -2e-5,-2.22655 -0.33856,-3.78254 -1.01563,-4.66797 -0.66407,-0.89842 -1.78386,-1.34764 -3.35937,-1.34766 -0.84637,2e-5 -1.73178,0.25393 -2.65625,0.76172 -0.92449,0.50783 -1.63412,1.13283 -2.12891,1.875 l 0,15.54688 -3.71094,0 0,-20.91797 2.53907,0 1.17187,2.69531 c 1.22395,-2.05727 3.22265,-3.08592 5.99609,-3.08594 4.58332,2e-5 6.87499,2.78648 6.875,8.35938 l 0,12.94922 -3.71093,0"
         style=""
         id="path3810" />
      <path
         d="m 263.07422,239.87064 -6.5625,-10.46875 -3.24219,3.33984 0,7.12891 -3.71094,0 0,-29.49219 3.71094,0 0,18.30078 8.00781,-9.72656 4.33594,0 -6.69922,7.94922 8.1836,12.96875 -4.02344,0"
         style=""
         id="path3812" />
      <path
         d="m 268.34766,238.62064 1.30859,-3.51563 c 2.07031,1.35417 3.73697,2.03125 5,2.03125 2.29166,0 3.43749,-0.96354 3.4375,-2.89062 -10e-6,-1.3802 -1.10678,-2.5651 -3.32031,-3.55469 -1.70574,-0.78124 -2.85808,-1.37369 -3.45703,-1.77734 -0.58594,-0.40364 -1.10027,-0.85937 -1.54297,-1.36719 -0.42969,-0.52082 -0.75521,-1.0677 -0.97657,-1.64063 -0.20833,-0.58592 -0.3125,-1.21092 -0.3125,-1.875 0,-1.71873 0.625,-3.05987 1.875,-4.02343 1.25,-0.96352 2.88411,-1.4453 4.90235,-1.44532 1.52343,2e-5 3.444,0.4818 5.76172,1.44532 l -1.05469,3.4375 c -1.47137,-1.17186 -2.94923,-1.7578 -4.43359,-1.75782 -0.88543,2e-5 -1.63413,0.20835 -2.2461,0.625 -0.59896,0.41669 -0.89844,0.94403 -0.89844,1.58203 0,1.34117 0.76172,2.35679 2.28516,3.04688 l 2.65625,1.21094 c 1.62759,0.7422 2.81249,1.58855 3.55469,2.53906 0.74217,0.95053 1.11327,2.14193 1.11328,3.57422 -10e-6,1.875 -0.65757,3.34635 -1.97266,4.41406 -1.31511,1.05469 -3.13803,1.58203 -5.46875,1.58203 -2.20052,0 -4.27083,-0.54687 -6.21093,-1.64062"
         style=""
         id="path3814" />
      <path
         d="m 301.66797,220.65189 -1.83594,2.61718 c -0.37762,-0.37758 -1.04819,-0.73566 -2.01172,-1.07421 -0.95053,-0.33853 -1.88803,-0.5078 -2.8125,-0.50782 -2.01824,2e-5 -3.6198,0.70966 -4.80469,2.12891 -1.1849,1.40626 -1.77734,3.33986 -1.77734,5.80078 0,2.44793 0.60546,4.31641 1.81641,5.60547 1.21093,1.27604 2.89061,1.91406 5.03906,1.91406 1.66665,0 3.34634,-0.64453 5.03906,-1.93359 l 1.46485,3.125 c -1.99221,1.28906 -4.45965,1.93359 -7.40235,1.93359 -2.85157,0 -5.20834,-0.95703 -7.07031,-2.87109 -1.86198,-1.91406 -2.79297,-4.5052 -2.79297,-7.77344 0,-3.33332 0.96354,-6.0091 2.89063,-8.02734 1.94009,-2.01821 4.58983,-3.02733 7.94921,-3.02735 1.08072,2e-5 2.25259,0.22789 3.51563,0.6836 1.263,0.45575 2.19399,0.9245 2.79297,1.40625"
         style=""
         id="path3816" />
      <path
         d="m 317.54687,237.46829 c -1.48438,1.86198 -3.75652,2.79297 -6.8164,2.79297 -1.64063,0 -3.06641,-0.59245 -4.27735,-1.77734 -1.19791,-1.19792 -1.79687,-2.68229 -1.79687,-4.45313 0,-2.12238 0.92448,-3.91275 2.77344,-5.37109 1.86197,-1.47134 4.23176,-2.20702 7.10937,-2.20703 0.78124,10e-6 1.66666,0.16928 2.65625,0.50781 -1e-5,-3.3854 -1.51043,-5.07811 -4.53125,-5.07812 -2.31771,1e-5 -4.10157,0.62501 -5.35156,1.875 l -1.5625,-3.10547 c 0.70312,-0.5729 1.67317,-1.06118 2.91016,-1.46485 1.24999,-0.41664 2.44139,-0.62498 3.57421,-0.625 3.03385,2e-5 5.23437,0.69013 6.60157,2.07032 1.38019,1.38022 2.07029,3.57423 2.07031,6.58203 l 0,7.5 c -2e-5,1.83594 0.54686,3.0599 1.64062,3.67187 l 0,1.85547 c -1.51043,0 -2.64324,-0.21484 -3.39843,-0.64453 -0.74221,-0.42969 -1.27606,-1.13932 -1.60157,-2.12891 m -0.35156,-7.87109 c -1.17189,-0.26041 -1.9922,-0.39061 -2.46094,-0.39063 -1.875,2e-5 -3.40495,0.48179 -4.58984,1.44532 -1.1849,0.96355 -1.77735,2.10287 -1.77734,3.41797 -10e-6,2.17448 1.28254,3.26172 3.84765,3.26171 1.87499,1e-5 3.53515,-0.89192 4.98047,-2.67578 l 0,-5.05859"
         style=""
         id="path3818" />
      <path
         d="m 330.45703,238.71829 0,9.35547 -3.71094,0 0,-29.12109 3.71094,0 0,1.71875 c 1.40624,-1.40623 3.10546,-2.10936 5.09766,-2.10938 2.96873,2e-5 5.27993,0.9245 6.93359,2.77344 1.65363,1.84898 2.48045,4.55731 2.48047,8.125 -2e-5,3.17709 -0.83335,5.77475 -2.5,7.79297 -1.66668,2.00521 -4.07554,3.00781 -7.22656,3.00781 -0.88543,0 -1.83595,-0.15625 -2.85157,-0.46875 -1.00261,-0.3125 -1.64714,-0.67057 -1.93359,-1.07422 m 0,-15.2539 0,12.1875 c 0.23437,0.35156 0.72916,0.6901 1.48438,1.01562 0.7552,0.3125 1.49087,0.46875 2.20703,0.46875 4.60936,0 6.91404,-2.60416 6.91406,-7.8125 -2e-5,-2.64321 -0.54689,-4.57681 -1.64063,-5.80078 -1.09376,-1.22394 -2.84506,-1.83592 -5.2539,-1.83594 -0.52084,2e-5 -1.15886,0.18231 -1.91406,0.54688 -0.75522,0.3646 -1.35418,0.77475 -1.79688,1.23047"
         style=""
         id="path3820" />
      <path
         d="m 366.62891,229.77298 -15.07813,0 c 0,2.44793 0.67057,4.32943 2.01172,5.64453 1.18489,1.14584 2.70832,1.71875 4.57031,1.71875 2.12238,0 3.89322,-0.61848 5.3125,-1.85547 l 1.5625,2.67578 c -0.57293,0.57292 -1.45184,1.06771 -2.63672,1.48438 -1.48439,0.54687 -3.13803,0.82031 -4.96093,0.82031 -2.63022,0 -4.86329,-0.89192 -6.69922,-2.67578 -2.04428,-1.96614 -3.06641,-4.60937 -3.06641,-7.92969 0,-3.4505 1.04818,-6.21743 3.14453,-8.30078 1.875,-1.86196 4.09505,-2.79295 6.66016,-2.79297 2.98176,2e-5 5.31899,0.83987 7.01172,2.51953 1.6406,1.61461 2.46091,3.75653 2.46093,6.42579 -2e-5,0.82032 -0.0977,1.57553 -0.29296,2.26562 m -9.00391,-8.08594 c -1.65366,2e-5 -3.04037,0.53388 -4.16016,1.60157 -1.06771,1.01564 -1.67318,2.27866 -1.8164,3.78906 l 11.58203,0 c -2e-5,-1.49738 -0.46877,-2.74738 -1.40625,-3.75 -1.02866,-1.09373 -2.4284,-1.64061 -4.19922,-1.64063"
         style=""
         id="path3822" />
      <path
         d="m 376.23828,232.4097 -1.38672,0 c -1.00261,-6.54947 -1.50391,-11.10024 -1.5039,-13.65234 l 0,-8.00782 4.41406,0 0,7.98828 c -1e-5,2.487 -0.50782,7.04429 -1.52344,13.67188 m -0.56641,1.97266 c 0.80729,0 1.49739,0.28646 2.07032,0.85937 0.5729,0.57292 0.85936,1.26303 0.85937,2.07031 -1e-5,0.8073 -0.28647,1.50391 -0.85937,2.08985 -0.57293,0.57291 -1.26303,0.85937 -2.07032,0.85937 -0.80729,0 -1.4974,-0.28646 -2.07031,-0.85937 -0.57292,-0.58594 -0.85938,-1.28255 -0.85937,-2.08985 -10e-6,-0.80728 0.28645,-1.49739 0.85937,-2.07031 0.57291,-0.57291 1.26302,-0.85937 2.07031,-0.85937"
         style=""
         id="path3824" />
    </g>
    <g
       transform="matrix(2.6004058,0,0,2.6004058,-125.22132,72.281285)"
       style="font-size:40px;font-style:normal;font-variant:normal;font-weight:normal;font-stretch:normal;line-height:125%;letter-spacing:0px;word-spacing:0px;fill:#000000;fill-opacity:1;stroke:none;font-family:Trebuchet MS;-inkscape-font-specification:Trebuchet MS"
       id="flowRoot2989">
      <path
         d="m 127.89844,239.87064 0,-13.82813 -12.5,0 0,13.82813 -3.90625,0 0,-28.61328 3.90625,0 0,11.46484 12.5,0 0,-11.46484 3.90625,0 0,28.61328 -3.90625,0"
         id="path3827"
         inkscape:connector-curvature="0" />
      <path
         d="m 154.98828,229.77298 -15.07812,0 c -1e-5,2.44793 0.67056,4.32943 2.01171,5.64453 1.18489,1.14584 2.70833,1.71875 4.57032,1.71875 2.12238,0 3.89321,-0.61848 5.3125,-1.85547 l 1.5625,2.67578 c -0.57294,0.57292 -1.45184,1.06771 -2.63672,1.48438 -1.48439,0.54687 -3.13803,0.82031 -4.96094,0.82031 -2.63022,0 -4.86329,-0.89192 -6.69922,-2.67578 -2.04427,-1.96614 -3.06641,-4.60937 -3.0664,-7.92969 -1e-5,-3.4505 1.04817,-6.21743 3.14453,-8.30078 1.87499,-1.86196 4.09504,-2.79295 6.66015,-2.79297 2.98176,2e-5 5.319,0.83987 7.01172,2.51953 1.64061,1.61461 2.46092,3.75653 2.46094,6.42579 -2e-5,0.82032 -0.0977,1.57553 -0.29297,2.26562 m -9.00391,-8.08594 c -1.65365,2e-5 -3.04037,0.53388 -4.16015,1.60157 -1.06772,1.01564 -1.67318,2.27866 -1.81641,3.78906 l 11.58203,0 c -1e-5,-1.49738 -0.46876,-2.74738 -1.40625,-3.75 -1.02866,-1.09373 -2.42839,-1.64061 -4.19922,-1.64063"
         id="path3829"
         inkscape:connector-curvature="0" />
      <path
         d="m 159.46094,233.95267 0,-23.57422 3.71093,0 0,22.94922 c 0,1.1198 0.31901,2.00521 0.95704,2.65625 0.65103,0.63802 1.49738,0.95703 2.53906,0.95703 l 0,3.32031 c -4.80469,0 -7.20704,-2.10286 -7.20703,-6.30859"
         id="path3831"
         inkscape:connector-curvature="0" />
      <path
         d="m 171.25781,233.95267 0,-23.57422 3.71094,0 0,22.94922 c -1e-5,1.1198 0.319,2.00521 0.95703,2.65625 0.65103,0.63802 1.49739,0.95703 2.53906,0.95703 l 0,3.32031 c -4.80469,0 -7.20703,-2.10286 -7.20703,-6.30859"
         id="path3833"
         inkscape:connector-curvature="0" />
      <path
         d="m 181.39453,229.36282 c 0,-3.22915 0.86588,-5.83331 2.59766,-7.8125 1.74478,-1.99216 4.03645,-2.98826 6.875,-2.98828 2.99478,2e-5 5.31899,0.95705 6.97265,2.8711 1.65363,1.90106 2.48045,4.54428 2.48047,7.92968 -2e-5,3.37241 -0.84637,6.03517 -2.53906,7.98829 -1.69272,1.9401 -3.99741,2.91015 -6.91406,2.91015 -2.98178,0 -5.306,-0.98307 -6.97266,-2.94922 -1.66667,-1.96614 -2.5,-4.61587 -2.5,-7.94922 m 3.90625,0 c 0,5.24741 1.85546,7.8711 5.56641,7.8711 1.73176,0 3.08592,-0.70312 4.0625,-2.10938 0.98957,-1.40624 1.48436,-3.32681 1.48437,-5.76172 -1e-5,-5.18227 -1.84897,-7.77341 -5.54687,-7.77343 -1.69272,2e-5 -3.04689,0.69012 -4.0625,2.07031 -1.00261,1.38022 -1.50391,3.28126 -1.50391,5.70312"
         id="path3835"
         inkscape:connector-curvature="0" />
      <path
         d="m 220.10547,211.04251 c 0.63801,3e-5 1.17838,0.2279 1.62109,0.6836 0.45572,0.44273 0.68359,0.97659 0.6836,1.60156 -1e-5,0.63805 -0.22788,1.18492 -0.6836,1.64062 -0.44271,0.44274 -0.98308,0.66409 -1.62109,0.66407 -0.62501,2e-5 -1.16537,-0.22133 -1.6211,-0.66407 -0.44271,-0.4557 -0.66406,-1.00257 -0.66406,-1.64062 0,-0.638 0.22135,-1.17836 0.66406,-1.6211 0.44271,-0.44268 0.98307,-0.66403 1.6211,-0.66406 m -2.03125,28.82813 0,-17.79297 -2.8711,0 0,-3.125 6.58204,0 0,20.91797 -3.71094,0"
         id="path3837"
         inkscape:connector-curvature="0" />
      <path
         d="m 240.55469,239.87064 0,-12.16797 c -2e-5,-2.22655 -0.33856,-3.78254 -1.01563,-4.66797 -0.66407,-0.89842 -1.78386,-1.34764 -3.35937,-1.34766 -0.84637,2e-5 -1.73178,0.25393 -2.65625,0.76172 -0.92449,0.50783 -1.63412,1.13283 -2.12891,1.875 l 0,15.54688 -3.71094,0 0,-20.91797 2.53907,0 1.17187,2.69531 c 1.22395,-2.05727 3.22265,-3.08592 5.99609,-3.08594 4.58332,2e-5 6.87499,2.78648 6.875,8.35938 l 0,12.94922 -3.71093,0"
         id="path3839"
         inkscape:connector-curvature="0" />
      <path
         d="m 263.07422,239.87064 -6.5625,-10.46875 -3.24219,3.33984 0,7.12891 -3.71094,0 0,-29.49219 3.71094,0 0,18.30078 8.00781,-9.72656 4.33594,0 -6.69922,7.94922 8.1836,12.96875 -4.02344,0"
         id="path3841"
         inkscape:connector-curvature="0" />
      <path
         d="m 268.34766,238.62064 1.30859,-3.51563 c 2.07031,1.35417 3.73697,2.03125 5,2.03125 2.29166,0 3.43749,-0.96354 3.4375,-2.89062 -10e-6,-1.3802 -1.10678,-2.5651 -3.32031,-3.55469 -1.70574,-0.78124 -2.85808,-1.37369 -3.45703,-1.77734 -0.58594,-0.40364 -1.10027,-0.85937 -1.54297,-1.36719 -0.42969,-0.52082 -0.75521,-1.0677 -0.97657,-1.64063 -0.20833,-0.58592 -0.3125,-1.21092 -0.3125,-1.875 0,-1.71873 0.625,-3.05987 1.875,-4.02343 1.25,-0.96352 2.88411,-1.4453 4.90235,-1.44532 1.52343,2e-5 3.444,0.4818 5.76172,1.44532 l -1.05469,3.4375 c -1.47137,-1.17186 -2.94923,-1.7578 -4.43359,-1.75782 -0.88543,2e-5 -1.63413,0.20835 -2.2461,0.625 -0.59896,0.41669 -0.89844,0.94403 -0.89844,1.58203 0,1.34117 0.76172,2.35679 2.28516,3.04688 l 2.65625,1.21094 c 1.62759,0.7422 2.81249,1.58855 3.55469,2.53906 0.74217,0.95053 1.11327,2.14193 1.11328,3.57422 -10e-6,1.875 -0.65757,3.34635 -1.97266,4.41406 -1.31511,1.05469 -3.13803,1.58203 -5.46875,1.58203 -2.20052,0 -4.27083,-0.54687 -6.21093,-1.64062"
         id="path3843"
         inkscape:connector-curvature="0" />
      <path
         d="m 301.66797,220.65189 -1.83594,2.61718 c -0.37762,-0.37758 -1.04819,-0.73566 -2.01172,-1.07421 -0.95053,-0.33853 -1.88803,-0.5078 -2.8125,-0.50782 -2.01824,2e-5 -3.6198,0.70966 -4.80469,2.12891 -1.1849,1.40626 -1.77734,3.33986 -1.77734,5.80078 0,2.44793 0.60546,4.31641 1.81641,5.60547 1.21093,1.27604 2.89061,1.91406 5.03906,1.91406 1.66665,0 3.34634,-0.64453 5.03906,-1.93359 l 1.46485,3.125 c -1.99221,1.28906 -4.45965,1.93359 -7.40235,1.93359 -2.85157,0 -5.20834,-0.95703 -7.07031,-2.87109 -1.86198,-1.91406 -2.79297,-4.5052 -2.79297,-7.77344 0,-3.33332 0.96354,-6.0091 2.89063,-8.02734 1.94009,-2.01821 4.58983,-3.02733 7.94921,-3.02735 1.08072,2e-5 2.25259,0.22789 3.51563,0.6836 1.263,0.45575 2.19399,0.9245 2.79297,1.40625"
         id="path3845"
         inkscape:connector-curvature="0" />
      <path
         d="m 317.54687,237.46829 c -1.48438,1.86198 -3.75652,2.79297 -6.8164,2.79297 -1.64063,0 -3.06641,-0.59245 -4.27735,-1.77734 -1.19791,-1.19792 -1.79687,-2.68229 -1.79687,-4.45313 0,-2.12238 0.92448,-3.91275 2.77344,-5.37109 1.86197,-1.47134 4.23176,-2.20702 7.10937,-2.20703 0.78124,10e-6 1.66666,0.16928 2.65625,0.50781 -1e-5,-3.3854 -1.51043,-5.07811 -4.53125,-5.07812 -2.31771,1e-5 -4.10157,0.62501 -5.35156,1.875 l -1.5625,-3.10547 c 0.70312,-0.5729 1.67317,-1.06118 2.91016,-1.46485 1.24999,-0.41664 2.44139,-0.62498 3.57421,-0.625 3.03385,2e-5 5.23437,0.69013 6.60157,2.07032 1.38019,1.38022 2.07029,3.57423 2.07031,6.58203 l 0,7.5 c -2e-5,1.83594 0.54686,3.0599 1.64062,3.67187 l 0,1.85547 c -1.51043,0 -2.64324,-0.21484 -3.39843,-0.64453 -0.74221,-0.42969 -1.27606,-1.13932 -1.60157,-2.12891 m -0.35156,-7.87109 c -1.17189,-0.26041 -1.9922,-0.39061 -2.46094,-0.39063 -1.875,2e-5 -3.40495,0.48179 -4.58984,1.44532 -1.1849,0.96355 -1.77735,2.10287 -1.77734,3.41797 -10e-6,2.17448 1.28254,3.26172 3.84765,3.26171 1.87499,1e-5 3.53515,-0.89192 4.98047,-2.67578 l 0,-5.05859"
         id="path3847"
         inkscape:connector-curvature="0" />
      <path
         d="m 330.45703,238.71829 0,9.35547 -3.71094,0 0,-29.12109 3.71094,0 0,1.71875 c 1.40624,-1.40623 3.10546,-2.10936 5.09766,-2.10938 2.96873,2e-5 5.27993,0.9245 6.93359,2.77344 1.65363,1.84898 2.48045,4.55731 2.48047,8.125 -2e-5,3.17709 -0.83335,5.77475 -2.5,7.79297 -1.66668,2.00521 -4.07554,3.00781 -7.22656,3.00781 -0.88543,0 -1.83595,-0.15625 -2.85157,-0.46875 -1.00261,-0.3125 -1.64714,-0.67057 -1.93359,-1.07422 m 0,-15.2539 0,12.1875 c 0.23437,0.35156 0.72916,0.6901 1.48438,1.01562 0.7552,0.3125 1.49087,0.46875 2.20703,0.46875 4.60936,0 6.91404,-2.60416 6.91406,-7.8125 -2e-5,-2.64321 -0.54689,-4.57681 -1.64063,-5.80078 -1.09376,-1.22394 -2.84506,-1.83592 -5.2539,-1.83594 -0.52084,2e-5 -1.15886,0.18231 -1.91406,0.54688 -0.75522,0.3646 -1.35418,0.77475 -1.79688,1.23047"
         id="path3849"
         inkscape:connector-curvature="0" />
      <path
         d="m 366.62891,229.77298 -15.07813,0 c 0,2.44793 0.67057,4.32943 2.01172,5.64453 1.18489,1.14584 2.70832,1.71875 4.57031,1.71875 2.12238,0 3.89322,-0.61848 5.3125,-1.85547 l 1.5625,2.67578 c -0.57293,0.57292 -1.45184,1.06771 -2.63672,1.48438 -1.48439,0.54687 -3.13803,0.82031 -4.96093,0.82031 -2.63022,0 -4.86329,-0.89192 -6.69922,-2.67578 -2.04428,-1.96614 -3.06641,-4.60937 -3.06641,-7.92969 0,-3.4505 1.04818,-6.21743 3.14453,-8.30078 1.875,-1.86196 4.09505,-2.79295 6.66016,-2.79297 2.98176,2e-5 5.31899,0.83987 7.01172,2.51953 1.6406,1.61461 2.46091,3.75653 2.46093,6.42579 -2e-5,0.82032 -0.0977,1.57553 -0.29296,2.26562 m -9.00391,-8.08594 c -1.65366,2e-5 -3.04037,0.53388 -4.16016,1.60157 -1.06771,1.01564 -1.67318,2.27866 -1.8164,3.78906 l 11.58203,0 c -2e-5,-1.49738 -0.46877,-2.74738 -1.40625,-3.75 -1.02866,-1.09373 -2.4284,-1.64061 -4.19922,-1.64063"
         id="path3851"
         inkscape:connector-curvature="0" />
      <path
         d="m 376.23828,232.4097 -1.38672,0 c -1.00261,-6.54947 -1.50391,-11.10024 -1.5039,-13.65234 l 0,-8.00782 4.41406,0 0,7.98828 c -1e-5,2.487 -0.50782,7.04429 -1.52344,13.67188 m -0.56641,1.97266 c 0.80729,0 1.49739,0.28646 2.07032,0.85937 0.5729,0.57292 0.85936,1.26303 0.85937,2.07031 -1e-5,0.8073 -0.28647,1.50391 -0.85937,2.08985 -0.57293,0.57291 -1.26303,0.85937 -2.07032,0.85937 -0.80729,0 -1.4974,-0.28646 -2.07031,-0.85937 -0.57292,-0.58594 -0.85938,-1.28255 -0.85937,-2.08985 -10e-6,-0.80728 0.28645,-1.49739 0.85937,-2.07031 0.57291,-0.57291 1.26302,-0.85937 2.07031,-0.85937"
         id="path3853"
         inkscape:connector-curvature="0" />
    </g>
    <path
       id="path4276"
       d="m 1024.938,284.36219 1024,0 0,768.00001 -1024,0 z"
       style="color:#000000;fill:#0000ff;fill-opacity:1;fill-rule:nonzero;stroke:none;stroke-width:0.147;marker:none;visibility:visible;display:inline;overflow:visible;enable-background:accumulate"
       inkscape:connector-curvature="0" />
    <g
       id="g4278"
       style="font-size:40px;font-style:normal;font-variant:normal;font-weight:normal;font-stretch:normal;line-height:125%;letter-spacing:0px;word-spacing:0px;fill:#ffffff;fill-opacity:1;stroke:#ffffff;stroke-opacity:1;filter:url(#filter3773);font-family:Trebuchet MS;-inkscape-font-specification:Trebuchet MS"
       transform="matrix(2.6140358,0,0,2.6140358,894.37673,69.156954)">
      <path
         id="path4280"
         d="m 127.89844,239.87064 0,-13.82813 -12.5,0 0,13.82813 -3.90625,0 0,-28.61328 3.90625,0 0,11.46484 12.5,0 0,-11.46484 3.90625,0 0,28.61328 -3.90625,0"
         inkscape:connector-curvature="0" />
      <path
         id="path4282"
         d="m 154.98828,229.77298 -15.07812,0 c -1e-5,2.44793 0.67056,4.32943 2.01171,5.64453 1.18489,1.14584 2.70833,1.71875 4.57032,1.71875 2.12238,0 3.89321,-0.61848 5.3125,-1.85547 l 1.5625,2.67578 c -0.57294,0.57292 -1.45184,1.06771 -2.63672,1.48438 -1.48439,0.54687 -3.13803,0.82031 -4.96094,0.82031 -2.63022,0 -4.86329,-0.89192 -6.69922,-2.67578 -2.04427,-1.96614 -3.06641,-4.60937 -3.0664,-7.92969 -1e-5,-3.4505 1.04817,-6.21743 3.14453,-8.30078 1.87499,-1.86196 4.09504,-2.79295 6.66015,-2.79297 2.98176,2e-5 5.319,0.83987 7.01172,2.51953 1.64061,1.61461 2.46092,3.75653 2.46094,6.42579 -2e-5,0.82032 -0.0977,1.57553 -0.29297,2.26562 m -9.00391,-8.08594 c -1.65365,2e-5 -3.04037,0.53388 -4.16015,1.60157 -1.06772,1.01564 -1.67318,2.27866 -1.81641,3.78906 l 11.58203,0 c -1e-5,-1.49738 -0.46876,-2.74738 -1.40625,-3.75 -1.02866,-1.09373 -2.42839,-1.64061 -4.19922,-1.64063"
         inkscape:connector-curvature="0" />
      <path
         id="path4284"
         d="m 159.46094,233.95267 0,-23.57422 3.71093,0 0,22.94922 c 0,1.1198 0.31901,2.00521 0.95704,2.65625 0.65103,0.63802 1.49738,0.95703 2.53906,0.95703 l 0,3.32031 c -4.80469,0 -7.20704,-2.10286 -7.20703,-6.30859"
         inkscape:connector-curvature="0" />
      <path
         id="path4286"
         d="m 171.25781,233.95267 0,-23.57422 3.71094,0 0,22.94922 c -1e-5,1.1198 0.319,2.00521 0.95703,2.65625 0.65103,0.63802 1.49739,0.95703 2.53906,0.95703 l 0,3.32031 c -4.80469,0 -7.20703,-2.10286 -7.20703,-6.30859"
         inkscape:connector-curvature="0" />
      <path
         id="path4288"
         d="m 181.39453,229.36282 c 0,-3.22915 0.86588,-5.83331 2.59766,-7.8125 1.74478,-1.99216 4.03645,-2.98826 6.875,-2.98828 2.99478,2e-5 5.31899,0.95705 6.97265,2.8711 1.65363,1.90106 2.48045,4.54428 2.48047,7.92968 -2e-5,3.37241 -0.84637,6.03517 -2.53906,7.98829 -1.69272,1.9401 -3.99741,2.91015 -6.91406,2.91015 -2.98178,0 -5.306,-0.98307 -6.97266,-2.94922 -1.66667,-1.96614 -2.5,-4.61587 -2.5,-7.94922 m 3.90625,0 c 0,5.24741 1.85546,7.8711 5.56641,7.8711 1.73176,0 3.08592,-0.70312 4.0625,-2.10938 0.98957,-1.40624 1.48436,-3.32681 1.48437,-5.76172 -1e-5,-5.18227 -1.84897,-7.77341 -5.54687,-7.77343 -1.69272,2e-5 -3.04689,0.69012 -4.0625,2.07031 -1.00261,1.38022 -1.50391,3.28126 -1.50391,5.70312"
         inkscape:connector-curvature="0" />
      <path
         id="path4290"
         d="m 220.10547,211.04251 c 0.63801,3e-5 1.17838,0.2279 1.62109,0.6836 0.45572,0.44273 0.68359,0.97659 0.6836,1.60156 -1e-5,0.63805 -0.22788,1.18492 -0.6836,1.64062 -0.44271,0.44274 -0.98308,0.66409 -1.62109,0.66407 -0.62501,2e-5 -1.16537,-0.22133 -1.6211,-0.66407 -0.44271,-0.4557 -0.66406,-1.00257 -0.66406,-1.64062 0,-0.638 0.22135,-1.17836 0.66406,-1.6211 0.44271,-0.44268 0.98307,-0.66403 1.6211,-0.66406 m -2.03125,28.82813 0,-17.79297 -2.8711,0 0,-3.125 6.58204,0 0,20.91797 -3.71094,0"
         inkscape:connector-curvature="0" />
      <path
         id="path4292"
         d="m 240.55469,239.87064 0,-12.16797 c -2e-5,-2.22655 -0.33856,-3.78254 -1.01563,-4.66797 -0.66407,-0.89842 -1.78386,-1.34764 -3.35937,-1.34766 -0.84637,2e-5 -1.73178,0.25393 -2.65625,0.76172 -0.92449,0.50783 -1.63412,1.13283 -2.12891,1.875 l 0,15.54688 -3.71094,0 0,-20.91797 2.53907,0 1.17187,2.69531 c 1.22395,-2.05727 3.22265,-3.08592 5.99609,-3.08594 4.58332,2e-5 6.87499,2.78648 6.875,8.35938 l 0,12.94922 -3.71093,0"
         inkscape:connector-curvature="0" />
      <path
         id="path4294"
         d="m 263.07422,239.87064 -6.5625,-10.46875 -3.24219,3.33984 0,7.12891 -3.71094,0 0,-29.49219 3.71094,0 0,18.30078 8.00781,-9.72656 4.33594,0 -6.69922,7.94922 8.1836,12.96875 -4.02344,0"
         inkscape:connector-curvature="0" />
      <path
         id="path4296"
         d="m 268.34766,238.62064 1.30859,-3.51563 c 2.07031,1.35417 3.73697,2.03125 5,2.03125 2.29166,0 3.43749,-0.96354 3.4375,-2.89062 -10e-6,-1.3802 -1.10678,-2.5651 -3.32031,-3.55469 -1.70574,-0.78124 -2.85808,-1.37369 -3.45703,-1.77734 -0.58594,-0.40364 -1.10027,-0.85937 -1.54297,-1.36719 -0.42969,-0.52082 -0.75521,-1.0677 -0.97657,-1.64063 -0.20833,-0.58592 -0.3125,-1.21092 -0.3125,-1.875 0,-1.71873 0.625,-3.05987 1.875,-4.02343 1.25,-0.96352 2.88411,-1.4453 4.90235,-1.44532 1.52343,2e-5 3.444,0.4818 5.76172,1.44532 l -1.05469,3.4375 c -1.47137,-1.17186 -2.94923,-1.7578 -4.43359,-1.75782 -0.88543,2e-5 -1.63413,0.20835 -2.2461,0.625 -0.59896,0.41669 -0.89844,0.94403 -0.89844,1.58203 0,1.34117 0.76172,2.35679 2.28516,3.04688 l 2.65625,1.21094 c 1.62759,0.7422 2.81249,1.58855 3.55469,2.53906 0.74217,0.95053 1.11327,2.14193 1.11328,3.57422 -10e-6,1.875 -0.65757,3.34635 -1.97266,4.41406 -1.31511,1.05469 -3.13803,1.58203 -5.46875,1.58203 -2.20052,0 -4.27083,-0.54687 -6.21093,-1.64062"
         inkscape:connector-curvature="0" />
      <path
         id="path4298"
         d="m 301.66797,220.65189 -1.83594,2.61718 c -0.37762,-0.37758 -1.04819,-0.73566 -2.01172,-1.07421 -0.95053,-0.33853 -1.88803,-0.5078 -2.8125,-0.50782 -2.01824,2e-5 -3.6198,0.70966 -4.80469,2.12891 -1.1849,1.40626 -1.77734,3.33986 -1.77734,5.80078 0,2.44793 0.60546,4.31641 1.81641,5.60547 1.21093,1.27604 2.89061,1.91406 5.03906,1.91406 1.66665,0 3.34634,-0.64453 5.03906,-1.93359 l 1.46485,3.125 c -1.99221,1.28906 -4.45965,1.93359 -7.40235,1.93359 -2.85157,0 -5.20834,-0.95703 -7.07031,-2.87109 -1.86198,-1.91406 -2.79297,-4.5052 -2.79297,-7.77344 0,-3.33332 0.96354,-6.0091 2.89063,-8.02734 1.94009,-2.01821 4.58983,-3.02733 7.94921,-3.02735 1.08072,2e-5 2.25259,0.22789 3.51563,0.6836 1.263,0.45575 2.19399,0.9245 2.79297,1.40625"
         inkscape:connector-curvature="0" />
      <path
         id="path4300"
         d="m 317.54687,237.46829 c -1.48438,1.86198 -3.75652,2.79297 -6.8164,2.79297 -1.64063,0 -3.06641,-0.59245 -4.27735,-1.77734 -1.19791,-1.19792 -1.79687,-2.68229 -1.79687,-4.45313 0,-2.12238 0.92448,-3.91275 2.77344,-5.37109 1.86197,-1.47134 4.23176,-2.20702 7.10937,-2.20703 0.78124,10e-6 1.66666,0.16928 2.65625,0.50781 -1e-5,-3.3854 -1.51043,-5.07811 -4.53125,-5.07812 -2.31771,1e-5 -4.10157,0.62501 -5.35156,1.875 l -1.5625,-3.10547 c 0.70312,-0.5729 1.67317,-1.06118 2.91016,-1.46485 1.24999,-0.41664 2.44139,-0.62498 3.57421,-0.625 3.03385,2e-5 5.23437,0.69013 6.60157,2.07032 1.38019,1.38022 2.07029,3.57423 2.07031,6.58203 l 0,7.5 c -2e-5,1.83594 0.54686,3.0599 1.64062,3.67187 l 0,1.85547 c -1.51043,0 -2.64324,-0.21484 -3.39843,-0.64453 -0.74221,-0.42969 -1.27606,-1.13932 -1.60157,-2.12891 m -0.35156,-7.87109 c -1.17189,-0.26041 -1.9922,-0.39061 -2.46094,-0.39063 -1.875,2e-5 -3.40495,0.48179 -4.58984,1.44532 -1.1849,0.96355 -1.77735,2.10287 -1.77734,3.41797 -10e-6,2.17448 1.28254,3.26172 3.84765,3.26171 1.87499,1e-5 3.53515,-0.89192 4.98047,-2.67578 l 0,-5.05859"
         inkscape:connector-curvature="0" />
      <path
         id="path4302"
         d="m 330.45703,238.71829 0,9.35547 -3.71094,0 0,-29.12109 3.71094,0 0,1.71875 c 1.40624,-1.40623 3.10546,-2.10936 5.09766,-2.10938 2.96873,2e-5 5.27993,0.9245 6.93359,2.77344 1.65363,1.84898 2.48045,4.55731 2.48047,8.125 -2e-5,3.17709 -0.83335,5.77475 -2.5,7.79297 -1.66668,2.00521 -4.07554,3.00781 -7.22656,3.00781 -0.88543,0 -1.83595,-0.15625 -2.85157,-0.46875 -1.00261,-0.3125 -1.64714,-0.67057 -1.93359,-1.07422 m 0,-15.2539 0,12.1875 c 0.23437,0.35156 0.72916,0.6901 1.48438,1.01562 0.7552,0.3125 1.49087,0.46875 2.20703,0.46875 4.60936,0 6.91404,-2.60416 6.91406,-7.8125 -2e-5,-2.64321 -0.54689,-4.57681 -1.64063,-5.80078 -1.09376,-1.22394 -2.84506,-1.83592 -5.2539,-1.83594 -0.52084,2e-5 -1.15886,0.18231 -1.91406,0.54688 -0.75522,0.3646 -1.35418,0.77475 -1.79688,1.23047"
         inkscape:connector-curvature="0" />
      <path
         id="path4304"
         d="m 366.62891,229.77298 -15.07813,0 c 0,2.44793 0.67057,4.32943 2.01172,5.64453 1.18489,1.14584 2.70832,1.71875 4.57031,1.71875 2.12238,0 3.89322,-0.61848 5.3125,-1.85547 l 1.5625,2.67578 c -0.57293,0.57292 -1.45184,1.06771 -2.63672,1.48438 -1.48439,0.54687 -3.13803,0.82031 -4.96093,0.82031 -2.63022,0 -4.86329,-0.89192 -6.69922,-2.67578 -2.04428,-1.96614 -3.06641,-4.60937 -3.06641,-7.92969 0,-3.4505 1.04818,-6.21743 3.14453,-8.30078 1.875,-1.86196 4.09505,-2.79295 6.66016,-2.79297 2.98176,2e-5 5.31899,0.83987 7.01172,2.51953 1.6406,1.61461 2.46091,3.75653 2.46093,6.42579 -2e-5,0.82032 -0.0977,1.57553 -0.29296,2.26562 m -9.00391,-8.08594 c -1.65366,2e-5 -3.04037,0.53388 -4.16016,1.60157 -1.06771,1.01564 -1.67318,2.27866 -1.8164,3.78906 l 11.58203,0 c -2e-5,-1.49738 -0.46877,-2.74738 -1.40625,-3.75 -1.02866,-1.09373 -2.4284,-1.64061 -4.19922,-1.64063"
         inkscape:connector-curvature="0" />
      <path
         id="path4306"
         d="m 376.23828,232.4097 -1.38672,0 c -1.00261,-6.54947 -1.50391,-11.10024 -1.5039,-13.65234 l 0,-8.00782 4.41406,0 0,7.98828 c -1e-5,2.487 -0.50782,7.04429 -1.52344,13.67188 m -0.56641,1.97266 c 0.80729,0 1.49739,0.28646 2.07032,0.85937 0.5729,0.57292 0.85936,1.26303 0.85937,2.07031 -1e-5,0.8073 -0.28647,1.50391 -0.85937,2.08985 -0.57293,0.57291 -1.26303,0.85937 -2.07032,0.85937 -0.80729,0 -1.4974,-0.28646 -2.07031,-0.85937 -0.57292,-0.58594 -0.85938,-1.28255 -0.85937,-2.08985 -10e-6,-0.80728 0.28645,-1.49739 0.85937,-2.07031 0.57291,-0.57291 1.26302,-0.85937 2.07031,-0.85937"
         inkscape:connector-curvature="0" />
    </g>
    <g
       id="g4308"
       style="font-size:40px;font-style:normal;font-variant:normal;font-weight:normal;font-stretch:normal;line-height:125%;letter-spacing:0px;word-spacing:0px;fill:#000000;fill-opacity:1;stroke:none;font-family:Trebuchet MS;-inkscape-font-specification:Trebuchet MS"
       transform="matrix(2.6004058,0,0,2.6004058,897.71671,72.2813)">
      <path
         inkscape:connector-curvature="0"
         id="path4310"
         d="m 127.89844,239.87064 0,-13.82813 -12.5,0 0,13.82813 -3.90625,0 0,-28.61328 3.90625,0 0,11.46484 12.5,0 0,-11.46484 3.90625,0 0,28.61328 -3.90625,0" />
      <path
         inkscape:connector-curvature="0"
         id="path4312"
         d="m 154.98828,229.77298 -15.07812,0 c -1e-5,2.44793 0.67056,4.32943 2.01171,5.64453 1.18489,1.14584 2.70833,1.71875 4.57032,1.71875 2.12238,0 3.89321,-0.61848 5.3125,-1.85547 l 1.5625,2.67578 c -0.57294,0.57292 -1.45184,1.06771 -2.63672,1.48438 -1.48439,0.54687 -3.13803,0.82031 -4.96094,0.82031 -2.63022,0 -4.86329,-0.89192 -6.69922,-2.67578 -2.04427,-1.96614 -3.06641,-4.60937 -3.0664,-7.92969 -1e-5,-3.4505 1.04817,-6.21743 3.14453,-8.30078 1.87499,-1.86196 4.09504,-2.79295 6.66015,-2.79297 2.98176,2e-5 5.319,0.83987 7.01172,2.51953 1.64061,1.61461 2.46092,3.75653 2.46094,6.42579 -2e-5,0.82032 -0.0977,1.57553 -0.29297,2.26562 m -9.00391,-8.08594 c -1.65365,2e-5 -3.04037,0.53388 -4.16015,1.60157 -1.06772,1.01564 -1.67318,2.27866 -1.81641,3.78906 l 11.58203,0 c -1e-5,-1.49738 -0.46876,-2.74738 -1.40625,-3.75 -1.02866,-1.09373 -2.42839,-1.64061 -4.19922,-1.64063" />
      <path
         inkscape:connector-curvature="0"
         id="path4314"
         d="m 159.46094,233.95267 0,-23.57422 3.71093,0 0,22.94922 c 0,1.1198 0.31901,2.00521 0.95704,2.65625 0.65103,0.63802 1.49738,0.95703 2.53906,0.95703 l 0,3.32031 c -4.80469,0 -7.20704,-2.10286 -7.20703,-6.30859" />
      <path
         inkscape:connector-curvature="0"
         id="path4316"
         d="m 171.25781,233.95267 0,-23.57422 3.71094,0 0,22.94922 c -1e-5,1.1198 0.319,2.00521 0.95703,2.65625 0.65103,0.63802 1.49739,0.95703 2.53906,0.95703 l 0,3.32031 c -4.80469,0 -7.20703,-2.10286 -7.20703,-6.30859" />
      <path
         inkscape:connector-curvature="0"
         id="path4318"
         d="m 181.39453,229.36282 c 0,-3.22915 0.86588,-5.83331 2.59766,-7.8125 1.74478,-1.99216 4.03645,-2.98826 6.875,-2.98828 2.99478,2e-5 5.31899,0.95705 6.97265,2.8711 1.65363,1.90106 2.48045,4.54428 2.48047,7.92968 -2e-5,3.37241 -0.84637,6.03517 -2.53906,7.98829 -1.69272,1.9401 -3.99741,2.91015 -6.91406,2.91015 -2.98178,0 -5.306,-0.98307 -6.97266,-2.94922 -1.66667,-1.96614 -2.5,-4.61587 -2.5,-7.94922 m 3.90625,0 c 0,5.24741 1.85546,7.8711 5.56641,7.8711 1.73176,0 3.08592,-0.70312 4.0625,-2.10938 0.98957,-1.40624 1.48436,-3.32681 1.48437,-5.76172 -1e-5,-5.18227 -1.84897,-7.77341 -5.54687,-7.77343 -1.69272,2e-5 -3.04689,0.69012 -4.0625,2.07031 -1.00261,1.38022 -1.50391,3.28126 -1.50391,5.70312" />
      <path
         inkscape:connector-curvature="0"
         id="path4320"
         d="m 220.10547,211.04251 c 0.63801,3e-5 1.17838,0.2279 1.62109,0.6836 0.45572,0.44273 0.68359,0.97659 0.6836,1.60156 -1e-5,0.63805 -0.22788,1.18492 -0.6836,1.64062 -0.44271,0.44274 -0.98308,0.66409 -1.62109,0.66407 -0.62501,2e-5 -1.16537,-0.22133 -1.6211,-0.66407 -0.44271,-0.4557 -0.66406,-1.00257 -0.66406,-1.64062 0,-0.638 0.22135,-1.17836 0.66406,-1.6211 0.44271,-0.44268 0.98307,-0.66403 1.6211,-0.66406 m -2.03125,28.82813 0,-17.79297 -2.8711,0 0,-3.125 6.58204,0 0,20.91797 -3.71094,0" />
      <path
         inkscape:connector-curvature="0"
         id="path4322"
         d="m 240.55469,239.87064 0,-12.16797 c -2e-5,-2.22655 -0.33856,-3.78254 -1.01563,-4.66797 -0.66407,-0.89842 -1.78386,-1.34764 -3.35937,-1.34766 -0.84637,2e-5 -1.73178,0.25393 -2.65625,0.76172 -0.92449,0.50783 -1.63412,1.13283 -2.12891,1.875 l 0,15.54688 -3.71094,0 0,-20.91797 2.53907,0 1.17187,2.69531 c 1.22395,-2.05727 3.22265,-3.08592 5.99609,-3.08594 4.58332,2e-5 6.87499,2.78648 6.875,8.35938 l 0,12.94922 -3.71093,0" />
      <path
         inkscape:connector-curvature="0"
         id="path4324"
         d="m 263.07422,239.87064 -6.5625,-10.46875 -3.24219,3.33984 0,7.12891 -3.71094,0 0,-29.49219 3.71094,0 0,18.30078 8.00781,-9.72656 4.33594,0 -6.69922,7.94922 8.1836,12.96875 -4.02344,0" />
      <path
         inkscape:connector-curvature="0"
         id="path4326"
         d="m 268.34766,238.62064 1.30859,-3.51563 c 2.07031,1.35417 3.73697,2.03125 5,2.03125 2.29166,0 3.43749,-0.96354 3.4375,-2.89062 -10e-6,-1.3802 -1.10678,-2.5651 -3.32031,-3.55469 -1.70574,-0.78124 -2.85808,-1.37369 -3.45703,-1.77734 -0.58594,-0.40364 -1.10027,-0.85937 -1.54297,-1.36719 -0.42969,-0.52082 -0.75521,-1.0677 -0.97657,-1.64063 -0.20833,-0.58592 -0.3125,-1.21092 -0.3125,-1.875 0,-1.71873 0.625,-3.05987 1.875,-4.02343 1.25,-0.96352 2.88411,-1.4453 4.90235,-1.44532 1.52343,2e-5 3.444,0.4818 5.76172,1.44532 l -1.05469,3.4375 c -1.47137,-1.17186 -2.94923,-1.7578 -4.43359,-1.75782 -0.88543,2e-5 -1.63413,0.20835 -2.2461,0.625 -0.59896,0.41669 -0.89844,0.94403 -0.89844,1.58203 0,1.34117 0.76172,2.35679 2.28516,3.04688 l 2.65625,1.21094 c 1.62759,0.7422 2.81249,1.58855 3.55469,2.53906 0.74217,0.95053 1.11327,2.14193 1.11328,3.57422 -10e-6,1.875 -0.65757,3.34635 -1.97266,4.41406 -1.31511,1.05469 -3.13803,1.58203 -5.46875,1.58203 -2.20052,0 -4.27083,-0.54687 -6.21093,-1.64062" />
      <path
         inkscape:connector-curvature="0"
         id="path4328"
         d="m 301.66797,220.65189 -1.83594,2.61718 c -0.37762,-0.37758 -1.04819,-0.73566 -2.01172,-1.07421 -0.95053,-0.33853 -1.88803,-0.5078 -2.8125,-0.50782 -2.01824,2e-5 -3.6198,0.70966 -4.80469,2.12891 -1.1849,1.40626 -1.77734,3.33986 -1.77734,5.80078 0,2.44793 0.60546,4.31641 1.81641,5.60547 1.21093,1.27604 2.89061,1.91406 5.03906,1.91406 1.66665,0 3.34634,-0.64453 5.03906,-1.93359 l 1.46485,3.125 c -1.99221,1.28906 -4.45965,1.93359 -7.40235,1.93359 -2.85157,0 -5.20834,-0.95703 -7.07031,-2.87109 -1.86198,-1.91406 -2.79297,-4.5052 -2.79297,-7.77344 0,-3.33332 0.96354,-6.0091 2.89063,-8.02734 1.94009,-2.01821 4.58983,-3.02733 7.94921,-3.02735 1.08072,2e-5 2.25259,0.22789 3.51563,0.6836 1.263,0.45575 2.19399,0.9245 2.79297,1.40625" />
      <path
         inkscape:connector-curvature="0"
         id="path4330"
         d="m 317.54687,237.46829 c -1.48438,1.86198 -3.75652,2.79297 -6.8164,2.79297 -1.64063,0 -3.06641,-0.59245 -4.27735,-1.77734 -1.19791,-1.19792 -1.79687,-2.68229 -1.79687,-4.45313 0,-2.12238 0.92448,-3.91275 2.77344,-5.37109 1.86197,-1.47134 4.23176,-2.20702 7.10937,-2.20703 0.78124,10e-6 1.66666,0.16928 2.65625,0.50781 -1e-5,-3.3854 -1.51043,-5.07811 -4.53125,-5.07812 -2.31771,1e-5 -4.10157,0.62501 -5.35156,1.875 l -1.5625,-3.10547 c 0.70312,-0.5729 1.67317,-1.06118 2.91016,-1.46485 1.24999,-0.41664 2.44139,-0.62498 3.57421,-0.625 3.03385,2e-5 5.23437,0.69013 6.60157,2.07032 1.38019,1.38022 2.07029,3.57423 2.07031,6.58203 l 0,7.5 c -2e-5,1.83594 0.54686,3.0599 1.64062,3.67187 l 0,1.85547 c -1.51043,0 -2.64324,-0.21484 -3.39843,-0.64453 -0.74221,-0.42969 -1.27606,-1.13932 -1.60157,-2.12891 m -0.35156,-7.87109 c -1.17189,-0.26041 -1.9922,-0.39061 -2.46094,-0.39063 -1.875,2e-5 -3.40495,0.48179 -4.58984,1.44532 -1.1849,0.96355 -1.77735,2.10287 -1.77734,3.41797 -10e-6,2.17448 1.28254,3.26172 3.84765,3.26171 1.87499,1e-5 3.53515,-0.89192 4.98047,-2.67578 l 0,-5.05859" />
      <path
         inkscape:connector-curvature="0"
         id="path4332"
         d="m 330.45703,238.71829 0,9.35547 -3.71094,0 0,-29.12109 3.71094,0 0,1.71875 c 1.40624,-1.40623 3.10546,-2.10936 5.09766,-2.10938 2.96873,2e-5 5.27993,0.9245 6.93359,2.77344 1.65363,1.84898 2.48045,4.55731 2.48047,8.125 -2e-5,3.17709 -0.83335,5.77475 -2.5,7.79297 -1.66668,2.00521 -4.07554,3.00781 -7.22656,3.00781 -0.88543,0 -1.83595,-0.15625 -2.85157,-0.46875 -1.00261,-0.3125 -1.64714,-0.67057 -1.93359,-1.07422 m 0,-15.2539 0,12.1875 c 0.23437,0.35156 0.72916,0.6901 1.48438,1.01562 0.7552,0.3125 1.49087,0.46875 2.20703,0.46875 4.60936,0 6.91404,-2.60416 6.91406,-7.8125 -2e-5,-2.64321 -0.54689,-4.57681 -1.64063,-5.80078 -1.09376,-1.22394 -2.84506,-1.83592 -5.2539,-1.83594 -0.52084,2e-5 -1.15886,0.18231 -1.91406,0.54688 -0.75522,0.3646 -1.35418,0.77475 -1.79688,1.23047" />
      <path
         inkscape:connector-curvature="0"
         id="path4334"
         d="m 366.62891,229.77298 -15.07813,0 c 0,2.44793 0.67057,4.32943 2.01172,5.64453 1.18489,1.14584 2.70832,1.71875 4.57031,1.71875 2.12238,0 3.89322,-0.61848 5.3125,-1.85547 l 1.5625,2.67578 c -0.57293,0.57292 -1.45184,1.06771 -2.63672,1.48438 -1.48439,0.54687 -3.13803,0.82031 -4.96093,0.82031 -2.63022,0 -4.86329,-0.89192 -6.69922,-2.67578 -2.04428,-1.96614 -3.06641,-4.60937 -3.06641,-7.92969 0,-3.4505 1.04818,-6.21743 3.14453,-8.30078 1.875,-1.86196 4.09505,-2.79295 6.66016,-2.79297 2.98176,2e-5 5.31899,0.83987 7.01172,2.51953 1.6406,1.61461 2.46091,3.75653 2.46093,6.42579 -2e-5,0.82032 -0.0977,1.57553 -0.29296,2.26562 m -9.00391,-8.08594 c -1.65366,2e-5 -3.04037,0.53388 -4.16016,1.60157 -1.06771,1.01564 -1.67318,2.27866 -1.8164,3.78906 l 11.58203,0 c -2e-5,-1.49738 -0.46877,-2.74738 -1.40625,-3.75 -1.02866,-1.09373 -2.4284,-1.64061 -4.19922,-1.64063" />
      <path
         inkscape:connector-curvature="0"
         id="path4336"
         d="m 376.23828,232.4097 -1.38672,0 c -1.00261,-6.54947 -1.50391,-11.10024 -1.5039,-13.65234 l 0,-8.00782 4.41406,0 0,7.98828 c -1e-5,2.487 -0.50782,7.04429 -1.52344,13.67188 m -0.56641,1.97266 c 0.80729,0 1.49739,0.28646 2.07032,0.85937 0.5729,0.57292 0.85936,1.26303 0.85937,2.07031 -1e-5,0.8073 -0.28647,1.50391 -0.85937,2.08985 -0.57293,0.57291 -1.26303,0.85937 -2.07032,0.85937 -0.80729,0 -1.4974,-0.28646 -2.07031,-0.85937 -0.57292,-0.58594 -0.85938,-1.28255 -0.85937,-2.08985 -10e-6,-0.80728 0.28645,-1.49739 0.85937,-2.07031 0.57291,-0.57291 1.26302,-0.85937 2.07031,-0.85937" />
    </g>
    <path
       inkscape:connector-curvature="0"
       style="color:#000000;fill:#00ff00;fill-opacity:1;fill-rule:nonzero;stroke:none;stroke-width:0.14699999999999999;marker:none;visibility:visible;display:inline;overflow:visible;enable-background:accumulate"
       d="m 2048,284.36219 1024,0 0,768.00001 -1024,0 z"
       id="path4338" />
    <g
       transform="matrix(2.6140358,0,0,2.6140358,1917.4387,69.156954)"
       style="font-size:40px;font-style:normal;font-variant:normal;font-weight:normal;font-stretch:normal;line-height:125%;letter-spacing:0px;word-spacing:0px;fill:#ffffff;fill-opacity:1;stroke:#ffffff;stroke-opacity:1;filter:url(#filter3773);font-family:Trebuchet MS;-inkscape-font-specification:Trebuchet MS"
       id="g4340">
      <path
         inkscape:connector-curvature="0"
         d="m 127.89844,239.87064 0,-13.82813 -12.5,0 0,13.82813 -3.90625,0 0,-28.61328 3.90625,0 0,11.46484 12.5,0 0,-11.46484 3.90625,0 0,28.61328 -3.90625,0"
         id="path4342" />
      <path
         inkscape:connector-curvature="0"
         d="m 154.98828,229.77298 -15.07812,0 c -1e-5,2.44793 0.67056,4.32943 2.01171,5.64453 1.18489,1.14584 2.70833,1.71875 4.57032,1.71875 2.12238,0 3.89321,-0.61848 5.3125,-1.85547 l 1.5625,2.67578 c -0.57294,0.57292 -1.45184,1.06771 -2.63672,1.48438 -1.48439,0.54687 -3.13803,0.82031 -4.96094,0.82031 -2.63022,0 -4.86329,-0.89192 -6.69922,-2.67578 -2.04427,-1.96614 -3.06641,-4.60937 -3.0664,-7.92969 -1e-5,-3.4505 1.04817,-6.21743 3.14453,-8.30078 1.87499,-1.86196 4.09504,-2.79295 6.66015,-2.79297 2.98176,2e-5 5.319,0.83987 7.01172,2.51953 1.64061,1.61461 2.46092,3.75653 2.46094,6.42579 -2e-5,0.82032 -0.0977,1.57553 -0.29297,2.26562 m -9.00391,-8.08594 c -1.65365,2e-5 -3.04037,0.53388 -4.16015,1.60157 -1.06772,1.01564 -1.67318,2.27866 -1.81641,3.78906 l 11.58203,0 c -1e-5,-1.49738 -0.46876,-2.74738 -1.40625,-3.75 -1.02866,-1.09373 -2.42839,-1.64061 -4.19922,-1.64063"
         id="path4344" />
      <path
         inkscape:connector-curvature="0"
         d="m 159.46094,233.95267 0,-23.57422 3.71093,0 0,22.94922 c 0,1.1198 0.31901,2.00521 0.95704,2.65625 0.65103,0.63802 1.49738,0.95703 2.53906,0.95703 l 0,3.32031 c -4.80469,0 -7.20704,-2.10286 -7.20703,-6.30859"
         id="path4346" />
      <path
         inkscape:connector-curvature="0"
         d="m 171.25781,233.95267 0,-23.57422 3.71094,0 0,22.94922 c -1e-5,1.1198 0.319,2.00521 0.95703,2.65625 0.65103,0.63802 1.49739,0.95703 2.53906,0.95703 l 0,3.32031 c -4.80469,0 -7.20703,-2.10286 -7.20703,-6.30859"
         id="path4348" />
      <path
         inkscape:connector-curvature="0"
         d="m 181.39453,229.36282 c 0,-3.22915 0.86588,-5.83331 2.59766,-7.8125 1.74478,-1.99216 4.03645,-2.98826 6.875,-2.98828 2.99478,2e-5 5.31899,0.95705 6.97265,2.8711 1.65363,1.90106 2.48045,4.54428 2.48047,7.92968 -2e-5,3.37241 -0.84637,6.03517 -2.53906,7.98829 -1.69272,1.9401 -3.99741,2.91015 -6.91406,2.91015 -2.98178,0 -5.306,-0.98307 -6.97266,-2.94922 -1.66667,-1.96614 -2.5,-4.61587 -2.5,-7.94922 m 3.90625,0 c 0,5.24741 1.85546,7.8711 5.56641,7.8711 1.73176,0 3.08592,-0.70312 4.0625,-2.10938 0.98957,-1.40624 1.48436,-3.32681 1.48437,-5.76172 -1e-5,-5.18227 -1.84897,-7.77341 -5.54687,-7.77343 -1.69272,2e-5 -3.04689,0.69012 -4.0625,2.07031 -1.00261,1.38022 -1.50391,3.28126 -1.50391,5.70312"
         id="path4350" />
      <path
         inkscape:connector-curvature="0"
         d="m 220.10547,211.04251 c 0.63801,3e-5 1.17838,0.2279 1.62109,0.6836 0.45572,0.44273 0.68359,0.97659 0.6836,1.60156 -1e-5,0.63805 -0.22788,1.18492 -0.6836,1.64062 -0.44271,0.44274 -0.98308,0.66409 -1.62109,0.66407 -0.62501,2e-5 -1.16537,-0.22133 -1.6211,-0.66407 -0.44271,-0.4557 -0.66406,-1.00257 -0.66406,-1.64062 0,-0.638 0.22135,-1.17836 0.66406,-1.6211 0.44271,-0.44268 0.98307,-0.66403 1.6211,-0.66406 m -2.03125,28.82813 0,-17.79297 -2.8711,0 0,-3.125 6.58204,0 0,20.91797 -3.71094,0"
         id="path4352" />
      <path
         inkscape:connector-curvature="0"
         d="m 240.55469,239.87064 0,-12.16797 c -2e-5,-2.22655 -0.33856,-3.78254 -1.01563,-4.66797 -0.66407,-0.89842 -1.78386,-1.34764 -3.35937,-1.34766 -0.84637,2e-5 -1.73178,0.25393 -2.65625,0.76172 -0.92449,0.50783 -1.63412,1.13283 -2.12891,1.875 l 0,15.54688 -3.71094,0 0,-20.91797 2.53907,0 1.17187,2.69531 c 1.22395,-2.05727 3.22265,-3.08592 5.99609,-3.08594 4.58332,2e-5 6.87499,2.78648 6.875,8.35938 l 0,12.94922 -3.71093,0"
         id="path4354" />
      <path
         inkscape:connector-curvature="0"
         d="m 263.07422,239.87064 -6.5625,-10.46875 -3.24219,3.33984 0,7.12891 -3.71094,0 0,-29.49219 3.71094,0 0,18.30078 8.00781,-9.72656 4.33594,0 -6.69922,7.94922 8.1836,12.96875 -4.02344,0"
         id="path4356" />
      <path
         inkscape:connector-curvature="0"
         d="m 268.34766,238.62064 1.30859,-3.51563 c 2.07031,1.35417 3.73697,2.03125 5,2.03125 2.29166,0 3.43749,-0.96354 3.4375,-2.89062 -10e-6,-1.3802 -1.10678,-2.5651 -3.32031,-3.55469 -1.70574,-0.78124 -2.85808,-1.37369 -3.45703,-1.77734 -0.58594,-0.40364 -1.10027,-0.85937 -1.54297,-1.36719 -0.42969,-0.52082 -0.75521,-1.0677 -0.97657,-1.64063 -0.20833,-0.58592 -0.3125,-1.21092 -0.3125,-1.875 0,-1.71873 0.625,-3.05987 1.875,-4.02343 1.25,-0.96352 2.88411,-1.4453 4.90235,-1.44532 1.52343,2e-5 3.444,0.4818 5.76172,1.44532 l -1.05469,3.4375 c -1.47137,-1.17186 -2.94923,-1.7578 -4.43359,-1.75782 -0.88543,2e-5 -1.63413,0.20835 -2.2461,0.625 -0.59896,0.41669 -0.89844,0.94403 -0.89844,1.58203 0,1.34117 0.76172,2.35679 2.28516,3.04688 l 2.65625,1.21094 c 1.62759,0.7422 2.81249,1.58855 3.55469,2.53906 0.74217,0.95053 1.11327,2.14193 1.11328,3.57422 -10e-6,1.875 -0.65757,3.34635 -1.97266,4.41406 -1.31511,1.05469 -3.13803,1.58203 -5.46875,1.58203 -2.20052,0 -4.27083,-0.54687 -6.21093,-1.64062"
         id="path4358" />
      <path
         inkscape:connector-curvature="0"
         d="m 301.66797,220.65189 -1.83594,2.61718 c -0.37762,-0.37758 -1.04819,-0.73566 -2.01172,-1.07421 -0.95053,-0.33853 -1.88803,-0.5078 -2.8125,-0.50782 -2.01824,2e-5 -3.6198,0.70966 -4.80469,2.12891 -1.1849,1.40626 -1.77734,3.33986 -1.77734,5.80078 0,2.44793 0.60546,4.31641 1.81641,5.60547 1.21093,1.27604 2.89061,1.91406 5.03906,1.91406 1.66665,0 3.34634,-0.64453 5.03906,-1.93359 l 1.46485,3.125 c -1.99221,1.28906 -4.45965,1.93359 -7.40235,1.93359 -2.85157,0 -5.20834,-0.95703 -7.07031,-2.87109 -1.86198,-1.91406 -2.79297,-4.5052 -2.79297,-7.77344 0,-3.33332 0.96354,-6.0091 2.89063,-8.02734 1.94009,-2.01821 4.58983,-3.02733 7.94921,-3.02735 1.08072,2e-5 2.25259,0.22789 3.51563,0.6836 1.263,0.45575 2.19399,0.9245 2.79297,1.40625"
         id="path4360" />
      <path
         inkscape:connector-curvature="0"
         d="m 317.54687,237.46829 c -1.48438,1.86198 -3.75652,2.79297 -6.8164,2.79297 -1.64063,0 -3.06641,-0.59245 -4.27735,-1.77734 -1.19791,-1.19792 -1.79687,-2.68229 -1.79687,-4.45313 0,-2.12238 0.92448,-3.91275 2.77344,-5.37109 1.86197,-1.47134 4.23176,-2.20702 7.10937,-2.20703 0.78124,10e-6 1.66666,0.16928 2.65625,0.50781 -1e-5,-3.3854 -1.51043,-5.07811 -4.53125,-5.07812 -2.31771,1e-5 -4.10157,0.62501 -5.35156,1.875 l -1.5625,-3.10547 c 0.70312,-0.5729 1.67317,-1.06118 2.91016,-1.46485 1.24999,-0.41664 2.44139,-0.62498 3.57421,-0.625 3.03385,2e-5 5.23437,0.69013 6.60157,2.07032 1.38019,1.38022 2.07029,3.57423 2.07031,6.58203 l 0,7.5 c -2e-5,1.83594 0.54686,3.0599 1.64062,3.67187 l 0,1.85547 c -1.51043,0 -2.64324,-0.21484 -3.39843,-0.64453 -0.74221,-0.42969 -1.27606,-1.13932 -1.60157,-2.12891 m -0.35156,-7.87109 c -1.17189,-0.26041 -1.9922,-0.39061 -2.46094,-0.39063 -1.875,2e-5 -3.40495,0.48179 -4.58984,1.44532 -1.1849,0.96355 -1.77735,2.10287 -1.77734,3.41797 -10e-6,2.17448 1.28254,3.26172 3.84765,3.26171 1.87499,1e-5 3.53515,-0.89192 4.98047,-2.67578 l 0,-5.05859"
         id="path4362" />
      <path
         inkscape:connector-curvature="0"
         d="m 330.45703,238.71829 0,9.35547 -3.71094,0 0,-29.12109 3.71094,0 0,1.71875 c 1.40624,-1.40623 3.10546,-2.10936 5.09766,-2.10938 2.96873,2e-5 5.27993,0.9245 6.93359,2.77344 1.65363,1.84898 2.48045,4.55731 2.48047,8.125 -2e-5,3.17709 -0.83335,5.77475 -2.5,7.79297 -1.66668,2.00521 -4.07554,3.00781 -7.22656,3.00781 -0.88543,0 -1.83595,-0.15625 -2.85157,-0.46875 -1.00261,-0.3125 -1.64714,-0.67057 -1.93359,-1.07422 m 0,-15.2539 0,12.1875 c 0.23437,0.35156 0.72916,0.6901 1.48438,1.01562 0.7552,0.3125 1.49087,0.46875 2.20703,0.46875 4.60936,0 6.91404,-2.60416 6.91406,-7.8125 -2e-5,-2.64321 -0.54689,-4.57681 -1.64063,-5.80078 -1.09376,-1.22394 -2.84506,-1.83592 -5.2539,-1.83594 -0.52084,2e-5 -1.15886,0.18231 -1.91406,0.54688 -0.75522,0.3646 -1.35418,0.77475 -1.79688,1.23047"
         id="path4364" />
      <path
         inkscape:connector-curvature="0"
         d="m 366.62891,229.77298 -15.07813,0 c 0,2.44793 0.67057,4.32943 2.01172,5.64453 1.18489,1.14584 2.70832,1.71875 4.57031,1.71875 2.12238,0 3.89322,-0.61848 5.3125,-1.85547 l 1.5625,2.67578 c -0.57293,0.57292 -1.45184,1.06771 -2.63672,1.48438 -1.48439,0.54687 -3.13803,0.82031 -4.96093,0.82031 -2.63022,0 -4.86329,-0.89192 -6.69922,-2.67578 -2.04428,-1.96614 -3.06641,-4.60937 -3.06641,-7.92969 0,-3.4505 1.04818,-6.21743 3.14453,-8.30078 1.875,-1.86196 4.09505,-2.79295 6.66016,-2.79297 2.98176,2e-5 5.31899,0.83987 7.01172,2.51953 1.6406,1.61461 2.46091,3.75653 2.46093,6.42579 -2e-5,0.82032 -0.0977,1.57553 -0.29296,2.26562 m -9.00391,-8.08594 c -1.65366,2e-5 -3.04037,0.53388 -4.16016,1.60157 -1.06771,1.01564 -1.67318,2.27866 -1.8164,3.78906 l 11.58203,0 c -2e-5,-1.49738 -0.46877,-2.74738 -1.40625,-3.75 -1.02866,-1.09373 -2.4284,-1.64061 -4.19922,-1.64063"
         id="path4366" />
      <path
         inkscape:connector-curvature="0"
         d="m 376.23828,232.4097 -1.38672,0 c -1.00261,-6.54947 -1.50391,-11.10024 -1.5039,-13.65234 l 0,-8.00782 4.41406,0 0,7.98828 c -1e-5,2.487 -0.50782,7.04429 -1.52344,13.67188 m -0.56641,1.97266 c 0.80729,0 1.49739,0.28646 2.07032,0.85937 0.5729,0.57292 0.85936,1.26303 0.85937,2.07031 -1e-5,0.8073 -0.28647,1.50391 -0.85937,2.08985 -0.57293,0.57291 -1.26303,0.85937 -2.07032,0.85937 -0.80729,0 -1.4974,-0.28646 -2.07031,-0.85937 -0.57292,-0.58594 -0.85938,-1.28255 -0.85937,-2.08985 -10e-6,-0.80728 0.28645,-1.49739 0.85937,-2.07031 0.57291,-0.57291 1.26302,-0.85937 2.07031,-0.85937"
         id="path4368" />
    </g>
    <g
       transform="matrix(2.6004058,0,0,2.6004058,1920.7787,72.2813)"
       style="font-size:40px;font-style:normal;font-variant:normal;font-weight:normal;font-stretch:normal;line-height:125%;letter-spacing:0px;word-spacing:0px;fill:#000000;fill-opacity:1;stroke:none;font-family:Trebuchet MS;-inkscape-font-specification:Trebuchet MS"
       id="g4370">
      <path
         d="m 127.89844,239.87064 0,-13.82813 -12.5,0 0,13.82813 -3.90625,0 0,-28.61328 3.90625,0 0,11.46484 12.5,0 0,-11.46484 3.90625,0 0,28.61328 -3.90625,0"
         id="path4372"
         inkscape:connector-curvature="0" />
      <path
         d="m 154.98828,229.77298 -15.07812,0 c -1e-5,2.44793 0.67056,4.32943 2.01171,5.64453 1.18489,1.14584 2.70833,1.71875 4.57032,1.71875 2.12238,0 3.89321,-0.61848 5.3125,-1.85547 l 1.5625,2.67578 c -0.57294,0.57292 -1.45184,1.06771 -2.63672,1.48438 -1.48439,0.54687 -3.13803,0.82031 -4.96094,0.82031 -2.63022,0 -4.86329,-0.89192 -6.69922,-2.67578 -2.04427,-1.96614 -3.06641,-4.60937 -3.0664,-7.92969 -1e-5,-3.4505 1.04817,-6.21743 3.14453,-8.30078 1.87499,-1.86196 4.09504,-2.79295 6.66015,-2.79297 2.98176,2e-5 5.319,0.83987 7.01172,2.51953 1.64061,1.61461 2.46092,3.75653 2.46094,6.42579 -2e-5,0.82032 -0.0977,1.57553 -0.29297,2.26562 m -9.00391,-8.08594 c -1.65365,2e-5 -3.04037,0.53388 -4.16015,1.60157 -1.06772,1.01564 -1.67318,2.27866 -1.81641,3.78906 l 11.58203,0 c -1e-5,-1.49738 -0.46876,-2.74738 -1.40625,-3.75 -1.02866,-1.09373 -2.42839,-1.64061 -4.19922,-1.64063"
         id="path4374"
         inkscape:connector-curvature="0" />
      <path
         d="m 159.46094,233.95267 0,-23.57422 3.71093,0 0,22.94922 c 0,1.1198 0.31901,2.00521 0.95704,2.65625 0.65103,0.63802 1.49738,0.95703 2.53906,0.95703 l 0,3.32031 c -4.80469,0 -7.20704,-2.10286 -7.20703,-6.30859"
         id="path4376"
         inkscape:connector-curvature="0" />
      <path
         d="m 171.25781,233.95267 0,-23.57422 3.71094,0 0,22.94922 c -1e-5,1.1198 0.319,2.00521 0.95703,2.65625 0.65103,0.63802 1.49739,0.95703 2.53906,0.95703 l 0,3.32031 c -4.80469,0 -7.20703,-2.10286 -7.20703,-6.30859"
         id="path4378"
         inkscape:connector-curvature="0" />
      <path
         d="m 181.39453,229.36282 c 0,-3.22915 0.86588,-5.83331 2.59766,-7.8125 1.74478,-1.99216 4.03645,-2.98826 6.875,-2.98828 2.99478,2e-5 5.31899,0.95705 6.97265,2.8711 1.65363,1.90106 2.48045,4.54428 2.48047,7.92968 -2e-5,3.37241 -0.84637,6.03517 -2.53906,7.98829 -1.69272,1.9401 -3.99741,2.91015 -6.91406,2.91015 -2.98178,0 -5.306,-0.98307 -6.97266,-2.94922 -1.66667,-1.96614 -2.5,-4.61587 -2.5,-7.94922 m 3.90625,0 c 0,5.24741 1.85546,7.8711 5.56641,7.8711 1.73176,0 3.08592,-0.70312 4.0625,-2.10938 0.98957,-1.40624 1.48436,-3.32681 1.48437,-5.76172 -1e-5,-5.18227 -1.84897,-7.77341 -5.54687,-7.77343 -1.69272,2e-5 -3.04689,0.69012 -4.0625,2.07031 -1.00261,1.38022 -1.50391,3.28126 -1.50391,5.70312"
         id="path4380"
         inkscape:connector-curvature="0" />
      <path
         d="m 220.10547,211.04251 c 0.63801,3e-5 1.17838,0.2279 1.62109,0.6836 0.45572,0.44273 0.68359,0.97659 0.6836,1.60156 -1e-5,0.63805 -0.22788,1.18492 -0.6836,1.64062 -0.44271,0.44274 -0.98308,0.66409 -1.62109,0.66407 -0.62501,2e-5 -1.16537,-0.22133 -1.6211,-0.66407 -0.44271,-0.4557 -0.66406,-1.00257 -0.66406,-1.64062 0,-0.638 0.22135,-1.17836 0.66406,-1.6211 0.44271,-0.44268 0.98307,-0.66403 1.6211,-0.66406 m -2.03125,28.82813 0,-17.79297 -2.8711,0 0,-3.125 6.58204,0 0,20.91797 -3.71094,0"
         id="path4382"
         inkscape:connector-curvature="0" />
      <path
         d="m 240.55469,239.87064 0,-12.16797 c -2e-5,-2.22655 -0.33856,-3.78254 -1.01563,-4.66797 -0.66407,-0.89842 -1.78386,-1.34764 -3.35937,-1.34766 -0.84637,2e-5 -1.73178,0.25393 -2.65625,0.76172 -0.92449,0.50783 -1.63412,1.13283 -2.12891,1.875 l 0,15.54688 -3.71094,0 0,-20.91797 2.53907,0 1.17187,2.69531 c 1.22395,-2.05727 3.22265,-3.08592 5.99609,-3.08594 4.58332,2e-5 6.87499,2.78648 6.875,8.35938 l 0,12.94922 -3.71093,0"
         id="path4384"
         inkscape:connector-curvature="0" />
      <path
         d="m 263.07422,239.87064 -6.5625,-10.46875 -3.24219,3.33984 0,7.12891 -3.71094,0 0,-29.49219 3.71094,0 0,18.30078 8.00781,-9.72656 4.33594,0 -6.69922,7.94922 8.1836,12.96875 -4.02344,0"
         id="path4386"
         inkscape:connector-curvature="0" />
      <path
         d="m 268.34766,238.62064 1.30859,-3.51563 c 2.07031,1.35417 3.73697,2.03125 5,2.03125 2.29166,0 3.43749,-0.96354 3.4375,-2.89062 -10e-6,-1.3802 -1.10678,-2.5651 -3.32031,-3.55469 -1.70574,-0.78124 -2.85808,-1.37369 -3.45703,-1.77734 -0.58594,-0.40364 -1.10027,-0.85937 -1.54297,-1.36719 -0.42969,-0.52082 -0.75521,-1.0677 -0.97657,-1.64063 -0.20833,-0.58592 -0.3125,-1.21092 -0.3125,-1.875 0,-1.71873 0.625,-3.05987 1.875,-4.02343 1.25,-0.96352 2.88411,-1.4453 4.90235,-1.44532 1.52343,2e-5 3.444,0.4818 5.76172,1.44532 l -1.05469,3.4375 c -1.47137,-1.17186 -2.94923,-1.7578 -4.43359,-1.75782 -0.88543,2e-5 -1.63413,0.20835 -2.2461,0.625 -0.59896,0.41669 -0.89844,0.94403 -0.89844,1.58203 0,1.34117 0.76172,2.35679 2.28516,3.04688 l 2.65625,1.21094 c 1.62759,0.7422 2.81249,1.58855 3.55469,2.53906 0.74217,0.95053 1.11327,2.14193 1.11328,3.57422 -10e-6,1.875 -0.65757,3.34635 -1.97266,4.41406 -1.31511,1.05469 -3.13803,1.58203 -5.46875,1.58203 -2.20052,0 -4.27083,-0.54687 -6.21093,-1.64062"
         id="path4388"
         inkscape:connector-curvature="0" />
      <path
         d="m 301.66797,220.65189 -1.83594,2.61718 c -0.37762,-0.37758 -1.04819,-0.73566 -2.01172,-1.07421 -0.95053,-0.33853 -1.88803,-0.5078 -2.8125,-0.50782 -2.01824,2e-5 -3.6198,0.70966 -4.80469,2.12891 -1.1849,1.40626 -1.77734,3.33986 -1.77734,5.80078 0,2.44793 0.60546,4.31641 1.81641,5.60547 1.21093,1.27604 2.89061,1.91406 5.03906,1.91406 1.66665,0 3.34634,-0.64453 5.03906,-1.93359 l 1.46485,3.125 c -1.99221,1.28906 -4.45965,1.93359 -7.40235,1.93359 -2.85157,0 -5.20834,-0.95703 -7.07031,-2.87109 -1.86198,-1.91406 -2.79297,-4.5052 -2.79297,-7.77344 0,-3.33332 0.96354,-6.0091 2.89063,-8.02734 1.94009,-2.01821 4.58983,-3.02733 7.94921,-3.02735 1.08072,2e-5 2.25259,0.22789 3.51563,0.6836 1.263,0.45575 2.19399,0.9245 2.79297,1.40625"
         id="path4390"
         inkscape:connector-curvature="0" />
      <path
         d="m 317.54687,237.46829 c -1.48438,1.86198 -3.75652,2.79297 -6.8164,2.79297 -1.64063,0 -3.06641,-0.59245 -4.27735,-1.77734 -1.19791,-1.19792 -1.79687,-2.68229 -1.79687,-4.45313 0,-2.12238 0.92448,-3.91275 2.77344,-5.37109 1.86197,-1.47134 4.23176,-2.20702 7.10937,-2.20703 0.78124,10e-6 1.66666,0.16928 2.65625,0.50781 -1e-5,-3.3854 -1.51043,-5.07811 -4.53125,-5.07812 -2.31771,1e-5 -4.10157,0.62501 -5.35156,1.875 l -1.5625,-3.10547 c 0.70312,-0.5729 1.67317,-1.06118 2.91016,-1.46485 1.24999,-0.41664 2.44139,-0.62498 3.57421,-0.625 3.03385,2e-5 5.23437,0.69013 6.60157,2.07032 1.38019,1.38022 2.07029,3.57423 2.07031,6.58203 l 0,7.5 c -2e-5,1.83594 0.54686,3.0599 1.64062,3.67187 l 0,1.85547 c -1.51043,0 -2.64324,-0.21484 -3.39843,-0.64453 -0.74221,-0.42969 -1.27606,-1.13932 -1.60157,-2.12891 m -0.35156,-7.87109 c -1.17189,-0.26041 -1.9922,-0.39061 -2.46094,-0.39063 -1.875,2e-5 -3.40495,0.48179 -4.58984,1.44532 -1.1849,0.96355 -1.77735,2.10287 -1.77734,3.41797 -10e-6,2.17448 1.28254,3.26172 3.84765,3.26171 1.87499,1e-5 3.53515,-0.89192 4.98047,-2.67578 l 0,-5.05859"
         id="path4392"
         inkscape:connector-curvature="0" />
      <path
         d="m 330.45703,238.71829 0,9.35547 -3.71094,0 0,-29.12109 3.71094,0 0,1.71875 c 1.40624,-1.40623 3.10546,-2.10936 5.09766,-2.10938 2.96873,2e-5 5.27993,0.9245 6.93359,2.77344 1.65363,1.84898 2.48045,4.55731 2.48047,8.125 -2e-5,3.17709 -0.83335,5.77475 -2.5,7.79297 -1.66668,2.00521 -4.07554,3.00781 -7.22656,3.00781 -0.88543,0 -1.83595,-0.15625 -2.85157,-0.46875 -1.00261,-0.3125 -1.64714,-0.67057 -1.93359,-1.07422 m 0,-15.2539 0,12.1875 c 0.23437,0.35156 0.72916,0.6901 1.48438,1.01562 0.7552,0.3125 1.49087,0.46875 2.20703,0.46875 4.60936,0 6.91404,-2.60416 6.91406,-7.8125 -2e-5,-2.64321 -0.54689,-4.57681 -1.64063,-5.80078 -1.09376,-1.22394 -2.84506,-1.83592 -5.2539,-1.83594 -0.52084,2e-5 -1.15886,0.18231 -1.91406,0.54688 -0.75522,0.3646 -1.35418,0.77475 -1.79688,1.23047"
         id="path4394"
         inkscape:connector-curvature="0" />
      <path
         d="m 366.62891,229.77298 -15.07813,0 c 0,2.44793 0.67057,4.32943 2.01172,5.64453 1.18489,1.14584 2.70832,1.71875 4.57031,1.71875 2.12238,0 3.89322,-0.61848 5.3125,-1.85547 l 1.5625,2.67578 c -0.57293,0.57292 -1.45184,1.06771 -2.63672,1.48438 -1.48439,0.54687 -3.13803,0.82031 -4.96093,0.82031 -2.63022,0 -4.86329,-0.89192 -6.69922,-2.67578 -2.04428,-1.96614 -3.06641,-4.60937 -3.06641,-7.92969 0,-3.4505 1.04818,-6.21743 3.14453,-8.30078 1.875,-1.86196 4.09505,-2.79295 6.66016,-2.79297 2.98176,2e-5 5.31899,0.83987 7.01172,2.51953 1.6406,1.61461 2.46091,3.75653 2.46093,6.42579 -2e-5,0.82032 -0.0977,1.57553 -0.29296,2.26562 m -9.00391,-8.08594 c -1.65366,2e-5 -3.04037,0.53388 -4.16016,1.60157 -1.06771,1.01564 -1.67318,2.27866 -1.8164,3.78906 l 11.58203,0 c -2e-5,-1.49738 -0.46877,-2.74738 -1.40625,-3.75 -1.02866,-1.09373 -2.4284,-1.64061 -4.19922,-1.64063"
         id="path4396"
         inkscape:connector-curvature="0" />
      <path
         d="m 376.23828,232.4097 -1.38672,0 c -1.00261,-6.54947 -1.50391,-11.10024 -1.5039,-13.65234 l 0,-8.00782 4.41406,0 0,7.98828 c -1e-5,2.487 -0.50782,7.04429 -1.52344,13.67188 m -0.56641,1.97266 c 0.80729,0 1.49739,0.28646 2.07032,0.85937 0.5729,0.57292 0.85936,1.26303 0.85937,2.07031 -1e-5,0.8073 -0.28647,1.50391 -0.85937,2.08985 -0.57293,0.57291 -1.26303,0.85937 -2.07032,0.85937 -0.80729,0 -1.4974,-0.28646 -2.07031,-0.85937 -0.57292,-0.58594 -0.85938,-1.28255 -0.85937,-2.08985 -10e-6,-0.80728 0.28645,-1.49739 0.85937,-2.07031 0.57291,-0.57291 1.26302,-0.85937 2.07031,-0.85937"
         id="path4398"
         inkscape:connector-curvature="0" />
    </g>
  </g>
</svg>
